<svg xmlns="http://www.w3.org/2000/svg" viewBox="0 0 1200 760" role="img" aria-label="Antalya coast illustration">
  <defs>
    <linearGradient id="sky" x1="0" x2="0" y1="0" y2="1">
      <stop offset="0" stop-color="#7fc8df"/>
      <stop offset="1" stop-color="#f3d08c"/>
    </linearGradient>
    <linearGradient id="sea" x1="0" x2="1" y1="0" y2="0">
      <stop offset="0" stop-color="#14756f"/>
      <stop offset="1" stop-color="#39a6a3"/>
    </linearGradient>
  </defs>
  <rect width="1200" height="760" fill="url(#sky)"/>
  <circle cx="1000" cy="126" r="72" fill="#fff1b8"/>
  <path d="M0 330c170-38 263 24 398-4 151-32 232-124 393-98 122 20 211 99 409 60v472H0z" fill="#315d58"/>
  <path d="M0 442c150-43 282-38 392 8 166 69 303 49 470-3 124-38 224-45 338-8v321H0z" fill="url(#sea)"/>
  <path d="M0 568c148-20 265-17 408 12 215 44 415 42 792-26v206H0z" fill="#f3d08c"/>
  <path d="M156 524h186l-34 42H122z" fill="#ffffff" opacity=".85"/>
  <path d="M662 544h214l38 54H610z" fill="#ffffff" opacity=".75"/>
  <path d="M718 316c20 20 42 30 66 30s46-10 66-30" fill="none" stroke="#f9fbf7" stroke-width="12" stroke-linecap="round"/>
  <path d="M782 308v-78" stroke="#f9fbf7" stroke-width="12" stroke-linecap="round"/>
  <path d="M736 238c29-19 62-18 92 0" fill="none" stroke="#f9fbf7" stroke-width="12" stroke-linecap="round"/>
</svg>
