<svg xmlns="http://www.w3.org/2000/svg" viewBox="0 0 1200 760" role="img" aria-label="Bali rice terraces and temple illustration">
  <defs>
    <linearGradient id="sky" x1="0" x2="0" y1="0" y2="1">
      <stop offset="0" stop-color="#8dcde0"/>
      <stop offset="1" stop-color="#f1d89d"/>
    </linearGradient>
  </defs>
  <rect width="1200" height="760" fill="url(#sky)"/>
  <circle cx="920" cy="134" r="68" fill="#fff0b3"/>
  <path d="M0 392c160-70 320-80 480-30 186 58 306 36 450-28 102-46 192-54 270-24v450H0z" fill="#2f6c47"/>
  <path d="M0 522c180-46 360-48 540-6 198 46 410 34 660-50v294H0z" fill="#6aa85f"/>
  <path d="M0 592c198-46 398-48 600-8 224 44 424 32 600-38" fill="none" stroke="#d8e28a" stroke-width="18"/>
  <path d="M0 664c244-50 488-42 732 0 168 28 324 20 468-26" fill="none" stroke="#d8e28a" stroke-width="18"/>
  <g fill="#3f3328">
    <path d="M520 326h160v214H520z"/>
    <path d="M492 326h216l-108-86z"/>
    <path d="M552 238h96l-48-72z"/>
    <path d="M574 540h52v-88h-52z" fill="#f1d89d"/>
  </g>
</svg>
