<svg xmlns="http://www.w3.org/2000/svg" viewBox="0 0 1200 760" role="img" aria-label="Dubai skyline illustration">
  <defs>
    <linearGradient id="sky" x1="0" x2="0" y1="0" y2="1">
      <stop offset="0" stop-color="#87c7e8"/>
      <stop offset="1" stop-color="#f2c98b"/>
    </linearGradient>
    <linearGradient id="water" x1="0" x2="1" y1="0" y2="0">
      <stop offset="0" stop-color="#3479b8"/>
      <stop offset="1" stop-color="#72c7c1"/>
    </linearGradient>
  </defs>
  <rect width="1200" height="760" fill="url(#sky)"/>
  <circle cx="930" cy="150" r="76" fill="#fff0b3"/>
  <path d="M0 520h1200v240H0z" fill="url(#water)"/>
  <path d="M0 610c190-42 298 34 465 0 192-39 300-73 488-8 91 31 158 26 247-3v161H0z" fill="#e7c789"/>
  <g fill="#293d4c">
    <path d="M204 358h70v172h-70z"/>
    <path d="M315 300h86v230h-86z"/>
    <path d="M456 222h70v308h-70z"/>
    <path d="M612 132h48l28 398h-104z"/>
    <path d="M746 280h92v250h-92z"/>
    <path d="M888 338h68v192h-68z"/>
  </g>
  <path d="M612 132l24-78 24 78z" fill="#293d4c"/>
  <g stroke="#f8fbf7" stroke-width="7" opacity=".45">
    <path d="M222 394h34M222 426h34M336 340h44M336 374h44M476 270h30M476 304h30M770 326h44M770 364h44M906 380h32M906 414h32"/>
  </g>
</svg>
