<svg xmlns="http://www.w3.org/2000/svg" viewBox="0 0 1200 760" role="img" aria-label="Sochi sea and mountains illustration">
  <defs>
    <linearGradient id="sky" x1="0" x2="0" y1="0" y2="1">
      <stop offset="0" stop-color="#8fcbe5"/>
      <stop offset="1" stop-color="#d8e8d5"/>
    </linearGradient>
    <linearGradient id="sea" x1="0" x2="1" y1="0" y2="0">
      <stop offset="0" stop-color="#3479b8"/>
      <stop offset="1" stop-color="#2aa095"/>
    </linearGradient>
  </defs>
  <rect width="1200" height="760" fill="url(#sky)"/>
  <path d="M0 342l178-132 130 92 166-176 194 222 164-118 368 172v358H0z" fill="#6d8790"/>
  <path d="M382 224l92-98 108 124-96-34zM790 258l42-28 86 40-82-10z" fill="#f8fbf7"/>
  <path d="M0 480h1200v280H0z" fill="url(#sea)"/>
  <path d="M0 612c154-50 288-48 402 4 148 66 304 48 468 0 112-32 220-34 330-6v150H0z" fill="#e8c47c"/>
  <path d="M166 566c64-46 142-46 206 0M720 584c54-38 120-38 174 0" fill="none" stroke="#f9fbf7" stroke-width="12" stroke-linecap="round"/>
  <path d="M936 470h110v78H936zM956 420h70v50h-70z" fill="#eef4f1"/>
</svg>
